# 3ds Max Wavefront OBJ Exporter v0.97b - (c)2007 guruware
# File Created: 14.03.2015 08:29:02

mtllib home02.mtl

#
# object Object001
#

v  104.822487 18.690775 395.640259
v  102.609100 18.690775 383.087524
v  96.235901 18.690775 372.048798
v  86.471588 18.690775 363.855591
v  74.493889 18.690775 359.496033
v  61.747490 18.690775 359.496033
v  49.769798 18.690775 363.855591
v  40.005493 18.690775 372.048798
v  33.632286 18.690775 383.087524
v  31.418900 18.690775 395.640259
v  33.632286 18.690775 408.192993
v  40.005482 18.690775 419.231720
v  49.769787 18.690775 427.424927
v  61.747478 18.690775 431.784454
v  74.493874 18.690775 431.784485
v  86.471573 18.690775 427.424957
v  96.235886 18.690775 419.231750
v  102.609085 18.690775 408.193054
v  100.156410 70.402161 395.640259
v  98.224419 70.402161 384.683411
v  92.661476 70.402161 375.048096
v  84.138550 70.402153 367.896515
v  73.683640 70.402153 364.091248
v  62.557747 70.402153 364.091248
v  52.102837 70.402153 367.896515
v  43.579918 70.402161 375.048096
v  38.016968 70.402161 384.683411
v  36.084976 70.402161 395.640259
v  38.016968 70.402161 406.597107
v  43.579910 70.402161 416.232422
v  52.102829 70.402161 423.384003
v  62.557735 70.402161 427.189270
v  73.683624 70.402161 427.189270
v  84.138535 70.402161 423.384033
v  92.661461 70.402161 416.232422
v  98.224411 70.402161 406.597137
v  98.754593 129.368912 395.640259
v  96.907135 129.368912 385.162842
v  91.587616 129.368912 375.949158
v  83.437637 129.368912 369.110535
v  73.440216 129.368912 365.471771
v  62.801170 129.368912 365.471771
v  52.803741 129.368912 369.110535
v  44.653770 129.368912 375.949158
v  39.334251 129.368912 385.162842
v  37.486801 129.368912 395.640259
v  39.334251 129.368912 406.117676
v  44.653763 129.368912 415.331360
v  52.803734 129.368912 422.169983
v  62.801163 129.368912 425.808777
v  73.440201 129.368912 425.808777
v  83.437630 129.368912 422.169983
v  91.587608 129.368912 415.331360
v  96.907135 129.368912 406.117676
v  123.295609 98.942009 397.418701
v  121.275787 97.988976 382.696503
v  110.174850 99.160217 362.293793
v  95.582809 99.237747 350.200256
v  77.777664 99.444275 343.784973
v  58.889671 99.441467 343.780914
v  41.078621 99.230087 350.190430
v  26.478546 99.148743 362.283051
v  16.835052 99.043259 378.667419
v  13.348770 98.927910 397.419708
v  16.500992 98.816994 416.293152
v  25.966110 98.723076 432.984650
v  38.080399 97.771622 443.956909
v  58.701385 98.621849 452.064240
v  77.963501 98.624092 452.060638
v  96.033386 98.662399 445.417938
v  110.687469 98.733269 432.973663
v  120.146210 98.829826 416.285370
v  67.248611 178.514389 394.911194
v  101.684677 138.596085 383.630035
v  103.830437 138.596085 395.799255
v  95.506195 138.596100 372.928589
v  86.040222 138.596085 364.985687
v  84.405136 108.375397 358.430115
v  74.654465 138.596100 359.231689
v  70.740578 107.947128 355.121948
v  61.845524 138.596085 359.231689
v  52.299164 107.948151 357.265442
v  50.459778 138.596100 364.985687
v  40.993790 138.596085 372.928589
v  34.815315 138.596085 383.630035
v  32.669548 138.596085 395.799255
v  34.815315 138.596085 407.968475
v  40.993790 138.596100 418.669922
v  50.459770 138.596085 426.612823
v  62.071507 138.596085 430.839172
v  74.428459 138.596100 430.839172
v  86.040199 138.596100 426.612854
v  95.506180 138.596100 418.669983
v  101.684662 138.596085 407.968506
v  97.879189 106.424965 364.940430
v  111.431480 104.591766 390.592590
v  111.326859 105.229240 406.003845
v  107.915749 105.128403 375.933014
v  106.151901 104.129860 421.149353
v  96.813965 104.342499 432.503601
v  82.205933 103.578323 440.618958
v  69.484093 105.987694 440.388947
v  54.658070 105.498528 437.561554
v  41.393013 104.741371 430.770569
v  31.164024 105.132484 419.938812
v  24.652313 106.455345 405.923126
v  24.822311 106.643898 390.026245
v  29.915062 106.638458 376.150299
v  40.218246 107.854454 364.618408
v  89.680099 158.555237 388.078796
v  91.058029 158.555237 395.893402
v  85.712509 158.555252 381.206726
v  79.633820 158.555237 376.106079
v  72.322319 158.555252 372.411102
v  64.096909 158.555237 372.411102
v  56.785412 158.555252 376.106079
v  50.706711 158.555237 381.206726
v  46.739128 158.555237 388.078766
v  45.361202 158.555237 395.893402
v  46.739124 158.555237 403.708008
v  50.706711 158.555252 410.580078
v  56.785400 158.555237 415.680695
v  64.242020 158.555237 418.394714
v  72.177185 158.555252 418.394714
v  79.633804 158.555252 415.680725
v  85.712502 158.555252 410.580078
v  89.680099 158.555237 403.708008
# 127 vertices

vn 0.989526 0.144352 -0.000000
vn 0.929851 0.144352 -0.338438
vn 0.934658 0.103375 -0.340188
vn 0.994642 0.103375 -0.000000
vn 0.758021 0.144352 -0.636055
vn 0.761940 0.103375 -0.639344
vn 0.494763 0.144352 -0.856955
vn 0.497321 0.103375 -0.861386
vn 0.171829 0.144352 -0.974493
vn 0.172718 0.103375 -0.979532
vn -0.171830 0.144352 -0.974493
vn -0.172718 0.103375 -0.979532
vn -0.494763 0.144352 -0.856955
vn -0.497321 0.103375 -0.861386
vn -0.758021 0.144352 -0.636055
vn -0.761940 0.103375 -0.639344
vn -0.929851 0.144352 -0.338438
vn -0.934658 0.103375 -0.340188
vn -0.989526 0.144352 -0.000000
vn -0.994642 0.103375 -0.000000
vn -0.929851 0.144352 0.338438
vn -0.934658 0.103375 0.340188
vn -0.758021 0.144352 0.636055
vn -0.761941 0.103375 0.639344
vn -0.494763 0.144352 0.856955
vn -0.497321 0.103375 0.861385
vn -0.171830 0.144352 0.974493
vn -0.172718 0.103375 0.979532
vn 0.171829 0.144352 0.974493
vn 0.172717 0.103375 0.979532
vn 0.494763 0.144352 0.856955
vn 0.497321 0.103375 0.861386
vn 0.758021 0.144352 0.636056
vn 0.761940 0.103375 0.639344
vn 0.929851 0.144352 0.338438
vn 0.934658 0.103375 0.340188
vn 0.937927 0.061267 -0.341378
vn 0.998121 0.061267 -0.000000
vn 0.764605 0.061267 -0.641580
vn 0.499061 0.061267 -0.864398
vn 0.173322 0.061267 -0.982958
vn -0.173322 0.061267 -0.982958
vn -0.499061 0.061267 -0.864398
vn -0.764605 0.061267 -0.641580
vn -0.937927 0.061267 -0.341378
vn -0.998121 0.061267 -0.000000
vn -0.937927 0.061267 0.341378
vn -0.764606 0.061267 0.641580
vn -0.499061 0.061267 0.864398
vn -0.173322 0.061267 0.982958
vn 0.173321 0.061267 0.982958
vn 0.499060 0.061267 0.864399
vn 0.764605 0.061267 0.641581
vn 0.937927 0.061267 0.341378
vn 0.000000 -1.000000 -0.000000
vn 0.500656 0.369469 -0.782839
vn 0.484902 0.314140 -0.816202
vn 0.471039 0.391161 -0.790642
vn 0.199144 0.276812 -0.940062
vn 0.209167 0.348889 -0.913524
vn -0.176591 0.254562 -0.950796
vn -0.204164 0.359792 -0.910421
vn -0.237968 0.290935 -0.926676
vn -0.506063 0.371603 -0.778339
vn 0.860865 0.402590 -0.311181
vn 0.713656 0.651220 -0.258084
vn 0.758155 0.652073 0.001353
vn 0.912660 0.408663 -0.006815
vn -0.021170 0.999774 -0.001763
vn 0.583454 0.649567 -0.487488
vn 0.419439 0.649852 -0.633849
vn 0.177077 0.656617 -0.733143
vn 0.135841 0.352519 -0.925893
vn -0.175711 0.653442 -0.736301
vn -0.133771 0.352032 -0.926379
vn -0.422600 0.641115 -0.640610
vn -0.457373 0.389224 -0.799572
vn -0.590499 0.637567 -0.494792
vn -0.702703 0.385609 -0.597925
vn -0.725181 0.636431 -0.262809
vn -0.858846 0.400767 -0.319012
vn -0.771479 0.636254 0.001468
vn -0.908445 0.417949 -0.006724
vn -0.723738 0.637078 0.265207
vn -0.849874 0.425065 0.311502
vn -0.588286 0.638811 0.495823
vn -0.694422 0.423643 0.581639
vn -0.382402 0.641226 0.665280
vn -0.453631 0.426482 0.782517
vn -0.131772 0.644007 0.753585
vn -0.161266 0.435001 0.885871
vn 0.133016 0.646792 0.750977
vn 0.148896 0.445837 0.882644
vn 0.380326 0.649233 0.658672
vn 0.447361 0.453299 0.770966
vn 0.581134 0.651041 0.488293
vn 0.691532 0.441621 0.571625
vn 0.712140 0.652018 0.260249
vn 0.852455 0.426097 0.302921
vn 0.913045 0.387380 -0.127613
vn 0.892202 0.430228 -0.137400
vn -0.559028 0.318460 -0.765553
vn -0.712274 0.402686 -0.574899
vn -0.765088 0.335329 -0.549723
vn -0.845404 0.417677 -0.332923
vn -0.905501 0.360669 -0.223574
vn -0.899364 0.436782 -0.019118
vn -0.921868 0.381579 0.067507
vn -0.800994 0.458891 0.384484
vn -0.845120 0.385665 0.370183
vn -0.660132 0.472922 0.583585
vn -0.721834 0.408220 0.558848
vn -0.534952 0.475881 0.698114
vn -0.444744 0.387139 0.807667
vn -0.208486 0.488595 0.847236
vn -0.079703 0.420728 0.903679
vn 0.209182 0.489184 0.846724
vn 0.421041 0.424973 0.801325
vn 0.709539 0.471311 0.523852
vn 0.858696 0.390878 0.331444
vn 0.834067 0.458929 0.306131
vn 0.926767 0.372047 0.051806
vn 0.699069 0.393512 -0.597035
vn 0.700205 0.404245 -0.588472
vn 0.822785 0.331329 -0.461786
vn 0.897672 0.436800 -0.058229
vn 0.634084 0.420789 0.648748
vn 0.428184 0.485222 0.762377
# 128 vertex normals

vt 0.469432 0.644894 0.041625
vt 0.498581 0.644895 0.042631
vt 0.496650 0.768609 -0.027886
vt 0.468912 0.768609 -0.028764
vt 0.004543 0.645171 0.042631
vt 0.033375 0.645176 0.045170
vt 0.033926 0.768883 -0.025670
vt 0.007077 0.768883 -0.027886
vt 0.060663 0.645065 0.048043
vt 0.061112 0.768780 -0.023162
vt 0.087950 0.644981 0.049910
vt 0.088299 0.768696 -0.021532
vt 0.115235 0.644918 0.049910
vt 0.115488 0.768633 -0.021532
vt 0.142518 0.644876 0.048043
vt 0.142677 0.768591 -0.023162
vt 0.169800 0.644854 0.045170
vt 0.169866 0.768569 -0.025670
vt 0.197043 0.644857 0.042631
vt 0.197054 0.768571 -0.027886
vt 0.224239 0.644859 0.041625
vt 0.224241 0.768573 -0.028764
vt 0.251428 0.644862 0.042631
vt 0.251428 0.768576 -0.027885
vt 0.278619 0.644865 0.045170
vt 0.278614 0.768579 -0.025669
vt 0.305810 0.644869 0.048043
vt 0.305800 0.768583 -0.023162
vt 0.333001 0.644874 0.049910
vt 0.332984 0.768589 -0.021532
vt 0.360189 0.644880 0.049910
vt 0.360169 0.768594 -0.021532
vt 0.387379 0.644886 0.048043
vt 0.387354 0.768601 -0.023162
vt 0.414568 0.644894 0.045170
vt 0.414539 0.768607 -0.025670
vt 0.441817 0.644894 0.042631
vt 0.441725 0.768608 -0.027886
vt 0.494874 0.768609 -0.027886
vt 0.494294 0.909166 -0.049071
vt 0.468391 0.909166 -0.049910
vt 0.034483 0.909435 -0.046952
vt 0.008260 0.909438 -0.049071
vt 0.061575 0.909336 -0.044554
vt 0.088666 0.909253 -0.042995
vt 0.115757 0.909191 -0.042995
vt 0.142846 0.909148 -0.044554
vt 0.169936 0.909126 -0.046952
vt 0.197066 0.909128 -0.049071
vt 0.224243 0.909130 -0.049910
vt 0.251427 0.909133 -0.049071
vt 0.278609 0.909136 -0.046951
vt 0.305788 0.909140 -0.044554
vt 0.332967 0.909145 -0.042995
vt 0.360147 0.909151 -0.042995
vt 0.387329 0.909157 -0.044554
vt 0.414510 0.909164 -0.046952
vt 0.441634 0.909165 -0.049071
vt 0.285667 1.703530 0.000000
vt 0.169910 1.841484 0.000000
vt 0.202683 1.751441 0.000000
vt 0.239951 1.720169 0.000000
vt 0.380033 1.720169 0.000000
vt 0.441625 1.793573 0.000000
vt 0.334317 1.703530 0.000000
vt 0.417300 1.751441 0.000000
vt 0.441625 1.889395 0.000000
vt 0.380033 1.962798 0.000000
vt 0.450073 1.841484 0.000000
vt 0.417300 1.931527 0.000000
vt 0.285667 1.979437 0.000000
vt 0.202683 1.931527 0.000000
vt 0.334317 1.979437 0.000000
vt 0.239951 1.962798 0.000000
vt 0.178358 1.889395 0.000000
vt 0.178358 1.793573 0.000000
vt 0.320538 0.400046 0.000000
vt 0.400868 0.446458 0.000000
vt 0.384346 0.496336 0.000000
vt 0.335586 0.483077 0.000000
vt 0.278620 0.418930 0.000000
vt 0.261937 0.501980 0.000000
vt 0.232579 0.420054 0.000000
vt 0.179915 0.489597 0.000000
vt 0.189493 0.404346 0.000000
vt 0.374592 0.330441 0.000000
vt 0.319146 0.311151 0.000000
vt 0.322392 0.286700 0.000000
vt 0.381056 0.285861 0.000000
vt 0.248829 0.291734 0.000000
vt 0.307746 0.333109 0.000000
vt 0.289562 0.349800 0.000000
vt 0.266765 0.361011 0.000000
vt 0.302093 0.529366 0.000000
vt 0.241125 0.361979 0.000000
vt 0.213075 0.531172 0.000000
vt 0.217354 0.352637 0.000000
vt 0.133506 0.505227 0.000000
vt 0.197754 0.337448 0.000000
vt 0.154410 0.376734 0.000000
vt 0.184625 0.316422 0.000000
vt 0.130712 0.338943 0.000000
vt 0.179508 0.292149 0.000000
vt 0.121315 0.295260 0.000000
vt 0.182963 0.267420 0.000000
vt 0.127139 0.250634 0.000000
vt 0.194737 0.245265 0.000000
vt 0.147927 0.210281 0.000000
vt 0.213345 0.228572 0.000000
vt 0.181826 0.179270 0.000000
vt 0.236455 0.219336 0.000000
vt 0.224367 0.162028 0.000000
vt 0.261227 0.218625 0.000000
vt 0.270006 0.160605 0.000000
vt 0.284693 0.226454 0.000000
vt 0.312773 0.175207 0.000000
vt 0.304113 0.241745 0.000000
vt 0.348186 0.203213 0.000000
vt 0.317187 0.262653 0.000000
vt 0.371826 0.241602 0.000000
vt 0.471084 0.318204 0.000000
vt 0.491655 0.359707 0.000000
vt 0.117822 0.454962 0.000000
vt 0.066849 0.452829 0.000000
vt 0.065874 0.401260 0.000000
vt 0.021612 0.381090 0.000000
vt 0.038910 0.333098 0.000000
vt 0.003281 0.298751 0.000000
vt 0.035582 0.258476 0.000000
vt 0.012811 0.216576 0.000000
vt 0.055973 0.186076 0.000000
vt 0.051643 0.137947 0.000000
vt 0.102950 0.124466 0.000000
vt 0.111219 0.078031 0.000000
vt 0.170848 0.084998 0.000000
vt 0.200642 0.042767 0.000000
vt 0.247928 0.070568 0.000000
vt 0.290100 0.040770 0.000000
vt 0.320160 0.073171 0.000000
vt 0.437242 0.122239 0.000000
vt 0.439364 0.167347 0.000000
vt 0.482172 0.195918 0.000000
vt 0.466198 0.240721 0.000000
vt 0.353652 0.369766 0.000000
vt 0.446442 0.439527 0.000000
vt 0.448222 0.389825 0.000000
vt 0.499255 0.280119 0.000000
vt 0.388688 0.112104 0.000000
vt 0.371354 0.069262 0.000000
# 149 texture coords

g Object001
usemtl Material__26
s 8
f -127/-149/-128 -126/-148/-127 -108/-147/-126 -109/-146/-125 
f -126/-145/-127 -125/-144/-124 -107/-143/-123 -108/-142/-126 
f -125/-144/-124 -124/-141/-122 -106/-140/-121 -107/-143/-123 
f -124/-141/-122 -123/-139/-120 -105/-138/-119 -106/-140/-121 
f -123/-139/-120 -122/-137/-118 -104/-136/-117 -105/-138/-119 
f -122/-137/-118 -121/-135/-116 -103/-134/-115 -104/-136/-117 
f -121/-135/-116 -120/-133/-114 -102/-132/-113 -103/-134/-115 
f -120/-133/-114 -119/-131/-112 -101/-130/-111 -102/-132/-113 
f -119/-131/-112 -118/-129/-110 -100/-128/-109 -101/-130/-111 
f -118/-129/-110 -117/-127/-108 -99/-126/-107 -100/-128/-109 
f -117/-127/-108 -116/-125/-106 -98/-124/-105 -99/-126/-107 
f -116/-125/-106 -115/-123/-104 -97/-122/-103 -98/-124/-105 
f -115/-123/-104 -114/-121/-102 -96/-120/-101 -97/-122/-103 
f -114/-121/-102 -113/-119/-100 -95/-118/-99 -96/-120/-101 
f -113/-119/-100 -112/-117/-98 -94/-116/-97 -95/-118/-99 
f -112/-117/-98 -111/-115/-96 -93/-114/-95 -94/-116/-97 
f -111/-115/-96 -110/-113/-94 -92/-112/-93 -93/-114/-95 
f -110/-113/-94 -127/-149/-128 -109/-146/-125 -92/-112/-93 
f -109/-146/-125 -108/-111/-126 -90/-110/-92 -91/-109/-91 
f -108/-142/-126 -107/-143/-123 -89/-108/-90 -90/-107/-92 
f -107/-143/-123 -106/-140/-121 -88/-106/-89 -89/-108/-90 
f -106/-140/-121 -105/-138/-119 -87/-105/-88 -88/-106/-89 
f -105/-138/-119 -104/-136/-117 -86/-104/-87 -87/-105/-88 
f -104/-136/-117 -103/-134/-115 -85/-103/-86 -86/-104/-87 
f -103/-134/-115 -102/-132/-113 -84/-102/-85 -85/-103/-86 
f -102/-132/-113 -101/-130/-111 -83/-101/-84 -84/-102/-85 
f -101/-130/-111 -100/-128/-109 -82/-100/-83 -83/-101/-84 
f -100/-128/-109 -99/-126/-107 -81/-99/-82 -82/-100/-83 
f -99/-126/-107 -98/-124/-105 -80/-98/-81 -81/-99/-82 
f -98/-124/-105 -97/-122/-103 -79/-97/-80 -80/-98/-81 
f -97/-122/-103 -96/-120/-101 -78/-96/-79 -79/-97/-80 
f -96/-120/-101 -95/-118/-99 -77/-95/-78 -78/-96/-79 
f -95/-118/-99 -94/-116/-97 -76/-94/-77 -77/-95/-78 
f -94/-116/-97 -93/-114/-95 -75/-93/-76 -76/-94/-77 
f -93/-114/-95 -92/-112/-93 -74/-92/-75 -75/-93/-76 
f -92/-112/-93 -109/-146/-125 -91/-109/-91 -74/-92/-75 
s 1
f -113/-91/-74 -127/-90/-74 -111/-89/-74 -112/-88/-74 
f -115/-87/-74 -117/-86/-74 -113/-91/-74 -114/-85/-74 
f -115/-87/-74 -116/-84/-74 -117/-86/-74 
f -119/-83/-74 -121/-82/-74 -117/-86/-74 -118/-81/-74 
f -119/-83/-74 -120/-80/-74 -121/-82/-74 
f -123/-79/-74 -125/-78/-74 -121/-82/-74 -122/-77/-74 
f -123/-79/-74 -124/-76/-74 -125/-78/-74 
f -117/-86/-74 -121/-82/-74 -125/-78/-74 -113/-91/-74 
f -127/-90/-74 -113/-91/-74 -125/-78/-74 -126/-75/-74 
f -110/-74/-74 -111/-89/-74 -127/-90/-74 
s 8
f -51/-73/-73 -33/-72/-72 -70/-71/-71 
f -50/-70/-70 -49/-69/-69 -51/-73/-73 
f -48/-68/-68 -47/-67/-67 -49/-69/-69 
f -46/-66/-66 -45/-65/-65 -47/-67/-67 
f -54/-64/-64 -18/-63/-63 -17/-62/-62 -53/-61/-61 
f -55/-60/-60 -16/-59/-59 -15/-58/-58 
f -14/-57/-57 -15/-58/-58 -51/-73/-73 -49/-69/-69 
f -50/-70/-70 -69/-56/-56 -49/-69/-69 
f -51/-73/-73 -70/-71/-71 -50/-70/-70 
f -13/-55/-55 -14/-57/-57 -49/-69/-69 -47/-67/-67 
f -48/-68/-68 -68/-54/-54 -47/-67/-67 
f -49/-69/-69 -69/-56/-56 -48/-68/-68 
f -45/-65/-65 -12/-53/-53 -13/-55/-55 -47/-67/-67 
f -46/-66/-66 -67/-52/-52 -45/-65/-65 
f -47/-67/-67 -68/-54/-54 -46/-66/-66 
f -11/-51/-51 -12/-53/-53 -45/-65/-65 -44/-50/-50 
f -10/-49/-49 -11/-51/-51 -44/-50/-50 -43/-48/-48 
f -9/-47/-47 -10/-49/-49 -43/-48/-48 -42/-46/-46 
f -8/-45/-45 -9/-47/-47 -42/-46/-46 -41/-44/-44 
f -7/-43/-43 -8/-45/-45 -41/-44/-44 -40/-42/-42 
f -6/-41/-41 -7/-43/-43 -40/-42/-42 -39/-40/-40 
f -5/-39/-39 -6/-41/-41 -39/-40/-40 -38/-38/-38 
f -4/-37/-37 -5/-39/-39 -38/-38/-38 -37/-36/-36 
f -3/-35/-35 -4/-37/-37 -37/-36/-36 -36/-34/-34 
f -2/-33/-33 -3/-35/-35 -36/-34/-34 -35/-32/-32 
f -1/-31/-31 -2/-33/-33 -35/-32/-32 -34/-30/-30 
f -53/-61/-61 -17/-62/-62 -1/-31/-31 -34/-30/-30 
f -54/-64/-64 -32/-29/-29 -72/-28/-28 
f -67/-52/-52 -19/-27/-27 -45/-65/-65 
f -66/-26/-26 -20/-25/-25 -44/-50/-50 
f -65/-24/-24 -21/-23/-23 -43/-48/-48 
f -64/-22/-22 -22/-21/-21 -42/-46/-46 
f -63/-20/-20 -23/-19/-19 -41/-44/-44 
f -62/-18/-18 -24/-17/-17 -40/-42/-42 
f -61/-16/-16 -25/-15/-15 -39/-40/-40 
f -60/-14/-14 -26/-13/-13 -38/-38/-38 
f -59/-12/-12 -27/-11/-11 -37/-36/-36 
f -35/-32/-32 -57/-10/-10 -29/-9/-9 
f -56/-8/-8 -31/-7/-7 -34/-30/-30 
f -33/-72/-72 -51/-73/-73 -52/-6/-6 
f -52/-6/-6 -71/-5/-5 -33/-72/-72 
f -16/-59/-59 -18/-63/-63 -54/-64/-64 -52/-6/-6 
f -54/-64/-64 -30/-4/-4 -52/-6/-6 
f -30/-4/-4 -71/-5/-5 -52/-6/-6 
f -54/-64/-64 -72/-28/-28 -30/-4/-4 
f -54/-64/-64 -53/-61/-61 -32/-29/-29 
f -53/-61/-61 -73/-3/-3 -32/-29/-29 
f -31/-7/-7 -53/-61/-61 -34/-30/-30 
f -31/-7/-7 -73/-3/-3 -53/-61/-61 
f -29/-9/-9 -34/-30/-30 -35/-32/-32 
f -29/-9/-9 -56/-8/-8 -34/-30/-30 
f -35/-32/-32 -36/-34/-34 -28/-2/-2 
f -36/-34/-34 -58/-1/-1 -28/-2/-2 
f -35/-32/-32 -28/-2/-2 -57/-10/-10 
f -27/-11/-11 -36/-34/-34 -37/-36/-36 
f -27/-11/-11 -58/-1/-1 -36/-34/-34 
f -26/-13/-13 -59/-12/-12 -37/-36/-36 
f -26/-13/-13 -37/-36/-36 -38/-38/-38 
f -25/-15/-15 -60/-14/-14 -38/-38/-38 
f -25/-15/-15 -38/-38/-38 -39/-40/-40 
f -24/-17/-17 -61/-16/-16 -39/-40/-40 
f -24/-17/-17 -39/-40/-40 -40/-42/-42 
f -23/-19/-19 -62/-18/-18 -40/-42/-42 
f -23/-19/-19 -40/-42/-42 -41/-44/-44 
f -22/-21/-21 -63/-20/-20 -41/-44/-44 
f -22/-21/-21 -41/-44/-44 -42/-46/-46 
f -21/-23/-23 -64/-22/-22 -42/-46/-46 
f -21/-23/-23 -42/-46/-46 -43/-48/-48 
f -20/-25/-25 -65/-24/-24 -43/-48/-48 
f -20/-25/-25 -43/-48/-48 -44/-50/-50 
f -19/-27/-27 -66/-26/-26 -44/-50/-50 
f -19/-27/-27 -44/-50/-50 -45/-65/-65 
f -18/-63/-63 -55/-60/-60 -17/-62/-62 
f -15/-58/-58 -16/-59/-59 -52/-6/-6 -51/-73/-73 
f -14/-57/-57 -55/-60/-60 -15/-58/-58 
f -13/-55/-55 -55/-60/-60 -14/-57/-57 
f -12/-53/-53 -55/-60/-60 -13/-55/-55 
f -11/-51/-51 -55/-60/-60 -12/-53/-53 
f -10/-49/-49 -55/-60/-60 -11/-51/-51 
f -9/-47/-47 -55/-60/-60 -10/-49/-49 
f -8/-45/-45 -55/-60/-60 -9/-47/-47 
f -7/-43/-43 -55/-60/-60 -8/-45/-45 
f -6/-41/-41 -55/-60/-60 -7/-43/-43 
f -5/-39/-39 -55/-60/-60 -6/-41/-41 
f -4/-37/-37 -55/-60/-60 -5/-39/-39 
f -3/-35/-35 -55/-60/-60 -4/-37/-37 
f -2/-33/-33 -55/-60/-60 -3/-35/-35 
f -1/-31/-31 -55/-60/-60 -2/-33/-33 
f -17/-62/-62 -55/-60/-60 -1/-31/-31 
f -16/-59/-59 -55/-60/-60 -18/-63/-63 
# 60 polygons - 76 triangles

