# 3ds Max Wavefront OBJ Exporter v0.97b - (c)2007 guruware
# File Created: 25.03.2015 05:46:33

mtllib home05.mtl

#
# object Object002
#

v  64.922180 135.135315 396.924438
v  61.241314 133.398544 370.095062
v  41.011227 135.533005 332.913666
v  14.419079 135.674286 310.874756
v  -18.028584 136.050659 299.183655
v  -52.449585 136.045547 299.176270
v  -84.907997 135.660339 310.856812
v  -111.514816 135.512085 332.894104
v  -129.088867 135.319855 362.752563
v  -135.442184 135.109619 396.926300
v  -129.697647 134.907501 431.320770
v  -112.448654 134.736359 461.738953
v  -90.371872 133.002441 481.734528
v  -52.792709 134.551880 496.509094
v  -17.689920 134.555969 496.502533
v  15.240192 134.625778 484.397064
v  41.945415 134.754929 461.718933
v  59.182796 134.930893 431.306580
v  -35.260010 178.514389 394.911194
v  13.559299 161.764847 376.318604
v  16.686806 161.764847 394.055542
v  4.554012 161.764862 360.720947
v  -9.242897 161.764847 349.143951
v  -5.950840 152.326508 325.872620
v  -25.837929 161.764862 340.757385
v  -30.852791 151.546051 319.843933
v  -44.507286 161.764847 340.757385
v  -64.459961 151.547882 323.750183
v  -61.102306 161.764862 349.143982
v  -74.899231 161.764847 360.720947
v  -83.904510 161.764847 376.318573
v  -87.032013 161.764847 394.055542
v  -83.904510 161.764847 411.792480
v  -74.899231 161.764862 427.390137
v  -61.102322 161.764847 438.967102
v  -44.177917 161.764847 445.127075
v  -26.167336 161.764862 445.127075
v  -9.242924 161.764862 438.967133
v  4.553993 161.764862 427.390167
v  13.559292 161.764847 411.792542
v  18.603943 148.772095 337.736847
v  43.301296 145.431305 384.484741
v  43.110622 146.593018 412.569763
v  36.894299 146.409241 357.769470
v  33.679928 144.589539 440.170593
v  16.662708 144.977051 460.862274
v  -9.958618 143.584442 475.651489
v  -33.142578 147.975189 475.232330
v  -60.161148 147.083771 470.079773
v  -84.335052 145.703918 457.704071
v  -102.976105 146.416687 437.964539
v  -114.842896 148.827454 412.422729
v  -114.533081 149.171051 383.452606
v  -105.252182 149.161133 358.165436
v  -86.475922 151.377136 337.149994
v  -8.502905 171.338867 384.894562
v  -6.787859 171.338867 394.621063
v  -13.441181 171.338867 376.341217
v  -21.007061 171.338867 369.992676
v  -30.107365 171.338867 365.393677
v  -40.345169 171.338867 365.393677
v  -49.445465 171.338867 369.992676
v  -57.011356 171.338867 376.341217
v  -61.949627 171.338867 384.894531
v  -63.664669 171.338867 394.621063
v  -61.949627 171.338867 404.347534
v  -57.011356 171.338867 412.900909
v  -49.445480 171.338867 419.249420
v  -40.164555 171.338867 422.627441
v  -30.288002 171.338867 422.627441
v  -21.007076 171.338867 419.249451
v  -13.441196 171.338867 412.900940
v  -8.502911 171.338867 404.347595
v  47.646915 41.486855 395.640259
v  42.632511 41.486855 367.202209
v  28.194130 41.486855 342.194214
v  6.073261 41.486855 323.632568
v  -21.062023 41.486855 313.756134
v  -49.938782 41.486855 313.756165
v  -77.074051 41.486855 323.632568
v  -99.194939 41.486855 342.194183
v  -113.633316 41.486855 367.202209
v  -118.647720 41.486855 395.640259
v  -113.633301 41.486862 424.078278
v  -99.194954 41.486862 449.086304
v  -77.074066 41.486862 467.647949
v  -49.938812 41.486862 477.524353
v  -21.062059 41.486862 477.524384
v  6.073219 41.486862 467.648010
v  28.194115 41.486862 449.086395
v  42.632496 41.486862 424.078369
v  34.356281 101.479477 395.640259
v  30.143406 101.479454 371.747864
v  18.012920 101.479454 350.737244
v  -0.572063 101.479454 335.142609
v  -23.369923 101.479454 326.844849
v  -47.630886 101.479454 326.844879
v  -70.428726 101.479454 335.142609
v  -89.013702 101.479454 350.737244
v  -101.144211 101.479454 371.747864
v  -105.357071 101.479477 395.640259
v  -101.144196 101.479477 419.532654
v  -89.013718 101.479477 440.543243
v  -70.428757 101.479477 456.137909
v  -47.630909 101.479477 464.435638
v  -23.369949 101.479477 464.435669
v  -0.572102 101.479477 456.137939
v  18.012886 101.479477 440.543304
v  30.143391 101.479477 419.532715
v  29.184895 152.892471 395.640259
v  25.283882 152.892471 373.516602
v  14.051399 152.892471 354.061371
v  -3.157757 152.892471 339.621155
v  -24.267921 152.892471 331.937683
v  -46.732883 152.892471 331.937683
v  -67.843048 152.892471 339.621155
v  -85.052200 152.892471 354.061340
v  -96.284683 152.892471 373.516571
v  -100.185684 152.892471 395.640259
v  -96.284683 152.892471 417.763916
v  -85.052208 152.892471 437.219147
v  -67.843063 152.892471 451.659332
v  -46.732914 152.892471 459.342834
v  -24.267952 152.892471 459.342834
v  -3.157787 152.892471 451.659363
v  14.051380 152.892471 437.219177
v  25.283871 152.892471 417.763977
# 127 vertices

vn 0.231789 0.913256 -0.335018
vn 0.351293 0.879234 -0.321778
vn 0.312007 0.863664 -0.395900
vn 0.268048 0.880827 -0.390250
vn 0.084104 0.913838 -0.397275
vn 0.075068 0.869813 -0.487637
vn -0.081820 0.912497 -0.400818
vn -0.250863 0.882809 -0.397135
vn -0.215638 0.918446 -0.331598
vn 0.435143 0.900305 -0.010087
vn 0.411900 0.900439 -0.139811
vn 0.298013 0.948434 -0.107987
vn 0.318788 0.947826 0.000504
vn -0.000289 0.999990 0.004570
vn 0.241878 0.948939 -0.202507
vn 0.172682 0.949829 -0.260779
vn 0.072221 0.952259 -0.296626
vn 0.103607 0.854478 -0.509051
vn -0.072399 0.952181 -0.296834
vn -0.057412 0.853927 -0.517216
vn -0.173036 0.949639 -0.261234
vn -0.268844 0.865391 -0.422873
vn -0.311327 0.916918 -0.249674
vn -0.242536 0.948670 -0.202981
vn -0.377944 0.915110 -0.140473
vn -0.298965 0.948099 -0.108298
vn -0.398135 0.917326 -0.001185
vn -0.319864 0.947463 0.000508
vn -0.378536 0.912691 0.153968
vn -0.302146 0.946839 0.110471
vn -0.325967 0.903288 0.278956
vn -0.247407 0.946304 0.208082
vn -0.220786 0.902232 0.370446
vn -0.161995 0.945928 0.281029
vn -0.079473 0.909768 0.407440
vn -0.056368 0.945762 0.319933
vn 0.083808 0.908536 0.409315
vn 0.056241 0.945828 0.319760
vn 0.208368 0.905629 0.369350
vn 0.161648 0.946118 0.280591
vn 0.330760 0.904513 0.269172
vn 0.246726 0.946591 0.207586
vn 0.400661 0.903964 0.149399
vn 0.301176 0.947186 0.110148
vn 0.492905 0.863122 -0.109843
vn 0.500624 0.861067 -0.089104
vn -0.323154 0.891740 -0.316814
vn -0.409784 0.868188 -0.279868
vn -0.422366 0.886369 -0.189626
vn -0.459657 0.871924 -0.168711
vn -0.449681 0.892139 -0.043300
vn -0.482117 0.876095 0.004567
vn -0.423235 0.896461 0.131264
vn -0.398789 0.876359 0.270115
vn -0.400701 0.882845 0.244997
vn -0.326427 0.882795 0.337813
vn -0.291941 0.876924 0.381804
vn -0.261929 0.874270 0.408712
vn -0.170761 0.883486 0.436227
vn -0.114921 0.885697 0.449815
vn 0.024559 0.894708 0.445977
vn 0.159257 0.883065 0.441400
vn 0.160060 0.883074 0.441091
vn 0.372398 0.882116 0.288428
vn 0.413056 0.878421 0.240336
vn 0.427410 0.879348 0.209923
vn 0.463001 0.880661 0.100334
vn 0.324575 0.907917 -0.265211
vn 0.413628 0.867566 -0.276119
vn 0.443340 0.873790 -0.199851
vn 0.484599 0.874053 -0.034582
vn 0.287135 0.886939 0.361791
vn 0.191157 0.884580 0.425415
vn 0.994642 0.103375 -0.000000
vn 0.989526 0.144352 -0.000000
vn 0.929851 0.144352 -0.338438
vn 0.934658 0.103375 -0.340188
vn 0.758021 0.144352 -0.636055
vn 0.761940 0.103375 -0.639344
vn 0.494763 0.144352 -0.856955
vn 0.497321 0.103375 -0.861386
vn 0.171829 0.144352 -0.974493
vn 0.172718 0.103375 -0.979532
vn -0.171830 0.144352 -0.974493
vn -0.172718 0.103375 -0.979532
vn -0.494763 0.144352 -0.856955
vn -0.497321 0.103375 -0.861386
vn -0.758021 0.144352 -0.636055
vn -0.761940 0.103375 -0.639344
vn -0.929851 0.144352 -0.338438
vn -0.934658 0.103375 -0.340188
vn -0.989526 0.144352 -0.000000
vn -0.994642 0.103375 -0.000000
vn -0.929851 0.144352 0.338438
vn -0.934658 0.103375 0.340188
vn -0.758021 0.144352 0.636055
vn -0.761941 0.103375 0.639344
vn -0.494763 0.144352 0.856955
vn -0.497321 0.103375 0.861385
vn -0.171830 0.144352 0.974493
vn -0.172718 0.103375 0.979532
vn 0.171829 0.144352 0.974493
vn 0.172717 0.103375 0.979532
vn 0.494763 0.144352 0.856955
vn 0.497321 0.103375 0.861386
vn 0.758021 0.144352 0.636056
vn 0.761940 0.103375 0.639344
vn 0.929851 0.144352 0.338438
vn 0.934658 0.103375 0.340188
vn 0.998121 0.061267 -0.000000
vn 0.937927 0.061267 -0.341378
vn 0.764605 0.061267 -0.641580
vn 0.499061 0.061267 -0.864398
vn 0.173322 0.061267 -0.982958
vn -0.173322 0.061267 -0.982958
vn -0.499061 0.061267 -0.864398
vn -0.764605 0.061267 -0.641580
vn -0.937927 0.061267 -0.341378
vn -0.998121 0.061267 -0.000000
vn -0.937927 0.061267 0.341378
vn -0.764606 0.061267 0.641580
vn -0.499061 0.061267 0.864398
vn -0.173322 0.061267 0.982958
vn 0.173321 0.061267 0.982958
vn 0.499060 0.061267 0.864399
vn 0.764605 0.061267 0.641581
vn 0.937927 0.061267 0.341378
# 127 vertex normals

vt 0.309229 0.880104 0.000000
vt 0.371973 0.906181 0.000000
vt 0.368914 0.968862 0.000000
vt 0.317188 0.932033 0.000000
vt 0.273837 0.897348 0.000000
vt 0.262541 0.945320 0.000000
vt 0.233761 0.897347 0.000000
vt 0.191000 0.936713 0.000000
vt 0.197776 0.880043 0.000000
vt 0.363391 0.784023 0.000000
vt 0.357368 0.821818 0.000000
vt 0.308876 0.803302 0.000000
vt 0.312216 0.783277 0.000000
vt 0.253162 0.782672 0.000000
vt 0.298906 0.820975 0.000000
vt 0.283357 0.834264 0.000000
vt 0.264329 0.843841 0.000000
vt 0.291531 0.997411 0.000000
vt 0.242842 0.843884 0.000000
vt 0.215517 0.997458 0.000000
vt 0.223736 0.834536 0.000000
vt 0.142366 0.971692 0.000000
vt 0.168354 0.855390 0.000000
vt 0.207945 0.821373 0.000000
vt 0.149391 0.822056 0.000000
vt 0.197677 0.803597 0.000000
vt 0.143124 0.783962 0.000000
vt 0.194211 0.783403 0.000000
vt 0.149666 0.746142 0.000000
vt 0.197657 0.763327 0.000000
vt 0.168877 0.713275 0.000000
vt 0.207756 0.745636 0.000000
vt 0.198348 0.688746 0.000000
vt 0.223475 0.732333 0.000000
vt 0.234297 0.675510 0.000000
vt 0.242929 0.725123 0.000000
vt 0.272658 0.675473 0.000000
vt 0.263684 0.725108 0.000000
vt 0.308735 0.688814 0.000000
vt 0.283108 0.732297 0.000000
vt 0.338048 0.713360 0.000000
vt 0.298762 0.745589 0.000000
vt 0.357016 0.746353 0.000000
vt 0.308797 0.763245 0.000000
vt 0.427305 0.804724 0.000000
vt 0.471113 0.836655 0.000000
vt 0.142211 0.907602 0.000000
vt 0.080925 0.920267 0.000000
vt 0.100374 0.861903 0.000000
vt 0.042441 0.852701 0.000000
vt 0.081240 0.806750 0.000000
vt 0.029517 0.777935 0.000000
vt 0.080531 0.745086 0.000000
vt 0.042265 0.701546 0.000000
vt 0.103970 0.688191 0.000000
vt 0.080836 0.634053 0.000000
vt 0.144207 0.644315 0.000000
vt 0.129178 0.588465 0.000000
vt 0.197595 0.617820 0.000000
vt 0.213389 0.556547 0.000000
vt 0.257752 0.607305 0.000000
vt 0.293991 0.556593 0.000000
vt 0.310918 0.604561 0.000000
vt 0.426946 0.635460 0.000000
vt 0.406782 0.684133 0.000000
vt 0.464825 0.703724 0.000000
vt 0.425547 0.744971 0.000000
vt 0.338585 0.854792 0.000000
vt 0.425774 0.919475 0.000000
vt 0.412513 0.863000 0.000000
vt 0.476597 0.778071 0.000000
vt 0.368602 0.638494 0.000000
vt 0.367285 0.584214 0.000000
vt 0.497567 0.465782 -0.017964
vt 0.497567 0.537840 0.033031
vt 0.469634 0.537840 0.033611
vt 0.469634 0.465782 -0.017477
vt 0.441886 0.537840 0.035074
vt 0.441886 0.465782 -0.016247
vt 0.414418 0.537840 0.036730
vt 0.414418 0.465782 -0.014856
vt 0.387191 0.537840 0.037806
vt 0.387191 0.465782 -0.013952
vt 0.360059 0.537840 0.037806
vt 0.360059 0.465782 -0.013952
vt 0.332832 0.537840 0.036730
vt 0.332832 0.465782 -0.014857
vt 0.305364 0.537840 0.035074
vt 0.305364 0.465782 -0.016248
vt 0.277616 0.537840 0.033611
vt 0.277616 0.465782 -0.017477
vt 0.249683 0.537840 0.033031
vt 0.249683 0.465782 -0.017964
vt 0.221750 0.537840 0.033611
vt 0.221750 0.465782 -0.017477
vt 0.194002 0.537840 0.035074
vt 0.194002 0.465782 -0.016248
vt 0.166534 0.537840 0.036730
vt 0.166534 0.465782 -0.014857
vt 0.139307 0.537840 0.037806
vt 0.139307 0.465782 -0.013953
vt 0.112175 0.537840 0.037806
vt 0.112175 0.465782 -0.013953
vt 0.084948 0.537840 0.036730
vt 0.084948 0.465782 -0.014857
vt 0.057480 0.537840 0.035074
vt 0.057480 0.465782 -0.016248
vt 0.029732 0.537840 0.033611
vt 0.029732 0.465782 -0.017477
vt 0.001799 0.537840 0.033031
vt 0.001799 0.465782 -0.017964
vt 0.497567 0.404029 -0.037806
vt 0.469634 0.404029 -0.037355
vt 0.441886 0.404029 -0.036217
vt 0.414418 0.404029 -0.034929
vt 0.387191 0.404029 -0.034092
vt 0.360059 0.404029 -0.034092
vt 0.332832 0.404029 -0.034929
vt 0.305364 0.404029 -0.036217
vt 0.277616 0.404029 -0.037355
vt 0.249683 0.404029 -0.037806
vt 0.221750 0.404029 -0.037355
vt 0.194002 0.404029 -0.036217
vt 0.166534 0.404029 -0.034929
vt 0.139307 0.404029 -0.034092
vt 0.112175 0.404029 -0.034092
vt 0.084948 0.404029 -0.034929
vt 0.057480 0.404029 -0.036217
vt 0.029732 0.404029 -0.037355
vt 0.001799 0.404029 -0.037806
# 130 texture coords

g Object002
usemtl Material__26
s 8
f -105/-130/-127 -87/-129/-126 -124/-128/-125 
f -104/-127/-124 -103/-126/-123 -105/-130/-127 
f -102/-125/-122 -101/-124/-121 -103/-126/-123 
f -100/-123/-120 -99/-122/-119 -101/-124/-121 
f -107/-121/-118 -108/-120/-117 -72/-119/-116 -71/-118/-115 
f -109/-117/-114 -70/-116/-113 -69/-115/-112 
f -103/-126/-123 -68/-114/-111 -69/-115/-112 -105/-130/-127 
f -104/-127/-124 -123/-113/-110 -103/-126/-123 
f -105/-130/-127 -124/-128/-125 -104/-127/-124 
f -101/-124/-121 -67/-112/-109 -68/-114/-111 -103/-126/-123 
f -102/-125/-122 -122/-111/-108 -101/-124/-121 
f -103/-126/-123 -123/-113/-110 -102/-125/-122 
f -99/-122/-119 -66/-110/-107 -67/-112/-109 -101/-124/-121 
f -100/-123/-120 -121/-109/-106 -99/-122/-119 
f -101/-124/-121 -122/-111/-108 -100/-123/-120 
f -98/-108/-105 -65/-107/-104 -66/-110/-107 -99/-122/-119 
f -97/-106/-103 -64/-105/-102 -65/-107/-104 -98/-108/-105 
f -96/-104/-101 -63/-103/-100 -64/-105/-102 -97/-106/-103 
f -95/-102/-99 -62/-101/-98 -63/-103/-100 -96/-104/-101 
f -94/-100/-97 -61/-99/-96 -62/-101/-98 -95/-102/-99 
f -93/-98/-95 -60/-97/-94 -61/-99/-96 -94/-100/-97 
f -92/-96/-93 -59/-95/-92 -60/-97/-94 -93/-98/-95 
f -91/-94/-91 -58/-93/-90 -59/-95/-92 -92/-96/-93 
f -90/-92/-89 -57/-91/-88 -58/-93/-90 -91/-94/-91 
f -89/-90/-87 -56/-89/-86 -57/-91/-88 -90/-92/-89 
f -88/-88/-85 -55/-87/-84 -56/-89/-86 -89/-90/-87 
f -88/-88/-85 -107/-121/-118 -71/-118/-115 -55/-87/-84 
f -108/-120/-117 -86/-86/-83 -126/-85/-82 
f -121/-109/-106 -73/-84/-81 -99/-122/-119 
f -120/-83/-80 -74/-82/-79 -98/-108/-105 
f -119/-81/-78 -75/-80/-77 -97/-106/-103 
f -118/-79/-76 -76/-78/-75 -96/-104/-101 
f -117/-77/-74 -77/-76/-73 -95/-102/-99 
f -116/-75/-72 -78/-74/-71 -94/-100/-97 
f -115/-73/-70 -79/-72/-69 -93/-98/-95 
f -114/-71/-68 -80/-70/-67 -92/-96/-93 
f -113/-69/-66 -81/-68/-65 -91/-94/-91 
f -89/-90/-87 -111/-67/-64 -83/-66/-63 
f -110/-65/-62 -85/-64/-61 -88/-88/-85 
f -87/-129/-126 -105/-130/-127 -106/-63/-60 
f -106/-63/-60 -125/-62/-59 -87/-129/-126 
f -106/-63/-60 -70/-116/-113 -72/-119/-116 -108/-120/-117 
f -108/-120/-117 -84/-61/-58 -106/-63/-60 
f -84/-61/-58 -125/-62/-59 -106/-63/-60 
f -108/-120/-117 -126/-85/-82 -84/-61/-58 
f -108/-120/-117 -107/-121/-118 -86/-86/-83 
f -107/-121/-118 -127/-60/-57 -86/-86/-83 
f -85/-64/-61 -107/-121/-118 -88/-88/-85 
f -85/-64/-61 -127/-60/-57 -107/-121/-118 
f -83/-66/-63 -88/-88/-85 -89/-90/-87 
f -83/-66/-63 -110/-65/-62 -88/-88/-85 
f -89/-90/-87 -90/-92/-89 -82/-59/-56 
f -90/-92/-89 -112/-58/-55 -82/-59/-56 
f -89/-90/-87 -82/-59/-56 -111/-67/-64 
f -81/-68/-65 -90/-92/-89 -91/-94/-91 
f -81/-68/-65 -112/-58/-55 -90/-92/-89 
f -80/-70/-67 -113/-69/-66 -91/-94/-91 
f -80/-70/-67 -91/-94/-91 -92/-96/-93 
f -79/-72/-69 -114/-71/-68 -92/-96/-93 
f -79/-72/-69 -92/-96/-93 -93/-98/-95 
f -78/-74/-71 -115/-73/-70 -93/-98/-95 
f -78/-74/-71 -93/-98/-95 -94/-100/-97 
f -77/-76/-73 -116/-75/-72 -94/-100/-97 
f -77/-76/-73 -94/-100/-97 -95/-102/-99 
f -76/-78/-75 -117/-77/-74 -95/-102/-99 
f -76/-78/-75 -95/-102/-99 -96/-104/-101 
f -75/-80/-77 -118/-79/-76 -96/-104/-101 
f -75/-80/-77 -96/-104/-101 -97/-106/-103 
f -74/-82/-79 -119/-81/-78 -97/-106/-103 
f -74/-82/-79 -97/-106/-103 -98/-108/-105 
f -73/-84/-81 -120/-83/-80 -98/-108/-105 
f -73/-84/-81 -98/-108/-105 -99/-122/-119 
f -72/-119/-116 -109/-117/-114 -71/-118/-115 
f -105/-130/-127 -69/-115/-112 -70/-116/-113 -106/-63/-60 
f -68/-114/-111 -109/-117/-114 -69/-115/-112 
f -67/-112/-109 -109/-117/-114 -68/-114/-111 
f -66/-110/-107 -109/-117/-114 -67/-112/-109 
f -65/-107/-104 -109/-117/-114 -66/-110/-107 
f -64/-105/-102 -109/-117/-114 -65/-107/-104 
f -63/-103/-100 -109/-117/-114 -64/-105/-102 
f -62/-101/-98 -109/-117/-114 -63/-103/-100 
f -61/-99/-96 -109/-117/-114 -62/-101/-98 
f -60/-97/-94 -109/-117/-114 -61/-99/-96 
f -59/-95/-92 -109/-117/-114 -60/-97/-94 
f -58/-93/-90 -109/-117/-114 -59/-95/-92 
f -57/-91/-88 -109/-117/-114 -58/-93/-90 
f -56/-89/-86 -109/-117/-114 -57/-91/-88 
f -55/-87/-84 -109/-117/-114 -56/-89/-86 
f -71/-118/-115 -109/-117/-114 -55/-87/-84 
f -70/-116/-113 -109/-117/-114 -72/-119/-116 
f -36/-57/-54 -54/-56/-53 -53/-55/-52 -35/-54/-51 
f -35/-54/-51 -53/-55/-52 -52/-53/-50 -34/-52/-49 
f -34/-52/-49 -52/-53/-50 -51/-51/-48 -33/-50/-47 
f -33/-50/-47 -51/-51/-48 -50/-49/-46 -32/-48/-45 
f -32/-48/-45 -50/-49/-46 -49/-47/-44 -31/-46/-43 
f -31/-46/-43 -49/-47/-44 -48/-45/-42 -30/-44/-41 
f -30/-44/-41 -48/-45/-42 -47/-43/-40 -29/-42/-39 
f -29/-42/-39 -47/-43/-40 -46/-41/-38 -28/-40/-37 
f -28/-40/-37 -46/-41/-38 -45/-39/-36 -27/-38/-35 
f -27/-38/-35 -45/-39/-36 -44/-37/-34 -26/-36/-33 
f -26/-36/-33 -44/-37/-34 -43/-35/-32 -25/-34/-31 
f -25/-34/-31 -43/-35/-32 -42/-33/-30 -24/-32/-29 
f -24/-32/-29 -42/-33/-30 -41/-31/-28 -23/-30/-27 
f -23/-30/-27 -41/-31/-28 -40/-29/-26 -22/-28/-25 
f -22/-28/-25 -40/-29/-26 -39/-27/-24 -21/-26/-23 
f -21/-26/-23 -39/-27/-24 -38/-25/-22 -20/-24/-21 
f -20/-24/-21 -38/-25/-22 -37/-23/-20 -19/-22/-19 
f -19/-22/-19 -37/-23/-20 -54/-21/-53 -36/-20/-54 
f -18/-19/-18 -36/-57/-54 -35/-54/-51 -17/-18/-17 
f -17/-18/-17 -35/-54/-51 -34/-52/-49 -16/-17/-16 
f -16/-17/-16 -34/-52/-49 -33/-50/-47 -15/-16/-15 
f -15/-16/-15 -33/-50/-47 -32/-48/-45 -14/-15/-14 
f -14/-15/-14 -32/-48/-45 -31/-46/-43 -13/-14/-13 
f -13/-14/-13 -31/-46/-43 -30/-44/-41 -12/-13/-12 
f -12/-13/-12 -30/-44/-41 -29/-42/-39 -11/-12/-11 
f -11/-12/-11 -29/-42/-39 -28/-40/-37 -10/-11/-10 
f -10/-11/-10 -28/-40/-37 -27/-38/-35 -9/-10/-9 
f -9/-10/-9 -27/-38/-35 -26/-36/-33 -8/-9/-8 
f -8/-9/-8 -26/-36/-33 -25/-34/-31 -7/-8/-7 
f -7/-8/-7 -25/-34/-31 -24/-32/-29 -6/-7/-6 
f -6/-7/-6 -24/-32/-29 -23/-30/-27 -5/-6/-5 
f -5/-6/-5 -23/-30/-27 -22/-28/-25 -4/-5/-4 
f -4/-5/-4 -22/-28/-25 -21/-26/-23 -3/-4/-3 
f -3/-4/-3 -21/-26/-23 -20/-24/-21 -2/-3/-2 
f -2/-3/-2 -20/-24/-21 -19/-22/-19 -1/-2/-1 
f -1/-2/-1 -19/-22/-19 -36/-20/-54 -18/-1/-18 
# 54 polygons - 72 triangles

