# 3ds Max Wavefront OBJ Exporter v0.97b - (c)2007 guruware
# File Created: 19.03.2015 01:38:21

mtllib home04.mtl

#
# object Box001
#

v  -23.022657 57.464653 296.467285
v  -0.375450 57.464653 296.467285
v  -23.022657 57.464653 241.691589
v  -0.375450 57.464653 241.691589
v  -23.022655 87.408409 296.467285
v  -0.375450 87.408409 296.467285
v  -23.022655 87.408409 241.691589
v  -0.375450 87.408409 241.691589
v  -0.413395 65.175705 296.470123
v  -23.130009 65.175705 296.470123
v  -0.413397 65.175705 241.812042
v  -23.130011 65.175705 241.812042
v  14.624369 57.538467 296.467285
v  14.624369 57.538467 241.691589
v  14.586422 65.249519 241.812042
v  14.586424 65.249519 296.470123
v  -0.413397 65.175705 244.043915
v  -0.413395 65.175705 294.238251
v  14.586422 65.249519 244.414780
v  14.586424 65.249519 293.867401
v  12.336449 65.238449 241.812042
v  12.336452 65.238449 296.470123
v  11.018299 65.238449 293.867401
v  11.018295 65.238449 244.414780
v  14.512608 87.652565 244.043915
v  14.512608 87.652565 241.812042
v  12.262634 87.641495 241.812042
v  12.262634 87.641495 244.043915
v  14.512609 87.652565 296.470123
v  14.512609 87.652565 294.238251
v  12.262638 87.641495 294.238251
v  12.262638 87.641495 296.470123
v  14.503139 75.965309 245.201965
v  14.503139 75.965309 243.073090
v  12.356987 75.954742 243.073090
v  12.356987 75.954742 245.201965
v  14.503143 75.965309 295.209106
v  14.503143 75.965309 293.080200
v  12.356991 75.954742 293.080200
v  12.356991 75.954742 295.209106
v  -22.231758 71.796005 295.450134
v  -1.260069 71.796005 295.450134
v  -1.260069 71.796005 242.788284
v  -22.231758 71.796005 242.788284
v  14.017622 87.408409 296.467285
v  14.017622 87.408409 241.691589
v  28.650917 77.046890 238.220139
v  -5.117736 106.734253 241.334351
v  -38.886391 77.046890 238.220139
v  28.650909 77.046883 298.617004
v  -5.117736 106.734245 294.731842
v  -38.886395 77.046883 298.617004
v  -5.995592 79.743927 238.220139
v  -4.732753 79.743919 298.617004
v  -5.117736 106.734253 246.674103
v  -5.117736 106.734253 252.013855
v  -5.117736 106.734253 257.353607
v  -5.117736 106.734253 262.693359
v  -5.117736 106.734253 268.033081
v  -5.117736 106.734253 273.372833
v  -5.117736 106.734253 278.712585
v  -5.117736 106.734253 284.052338
v  -5.117736 106.734253 289.392090
v  20.979689 84.716927 290.614288
v  25.756241 79.743927 284.052338
v  20.979689 84.716927 278.712585
v  25.756241 79.743927 273.372833
v  20.979689 84.716927 268.033081
v  25.756241 79.743927 262.693329
v  20.979689 84.716927 257.353577
v  25.756241 79.743927 252.013840
v  20.979689 84.716934 246.674103
v  -31.215162 84.716934 246.674103
v  -35.991718 79.743927 252.013840
v  -31.215162 84.716927 257.353577
v  -35.991718 79.743927 262.693329
v  -31.215162 84.716927 268.033081
v  -35.991718 79.743927 273.372833
v  -31.215162 84.716927 278.712585
v  -35.991718 79.743927 284.052338
v  -31.215160 84.716927 290.614288
v  -26.004463 84.484947 297.963257
v  -20.406353 79.743919 298.617004
v  -11.278680 84.387527 297.963257
v  0.932350 84.387527 297.963257
v  10.396645 79.743919 298.617004
v  14.682123 84.484947 297.963257
v  15.702263 84.848778 238.642258
v  10.178085 79.743927 238.220139
v  0.613681 84.746078 238.642258
v  -12.428266 84.746078 238.642258
v  -21.613060 79.743927 238.220139
v  -25.791588 84.848778 238.642258
v  4.833773 95.824097 240.189880
v  4.833773 95.824081 296.159637
v  -15.076990 95.824097 240.189880
v  -15.076992 95.824081 296.159637
v  -5.406270 95.824097 240.075516
v  -4.996768 95.824081 296.302307
v  5.252458 95.824097 246.674103
v  4.889919 95.824097 252.013855
v  5.252457 95.824097 257.353577
v  4.889919 95.824097 262.693329
v  5.252459 95.824097 268.033081
v  5.252459 95.824089 289.997711
v  4.889920 95.824089 284.052338
v  5.252459 95.824089 278.712585
v  4.889920 95.824089 273.372833
v  -15.495675 95.824097 246.674103
v  -15.133138 95.824097 252.013855
v  -15.495674 95.824097 257.353607
v  -15.133136 95.824097 262.693329
v  -15.495675 95.824097 268.033081
v  -15.495675 95.824081 289.997711
v  -15.133136 95.824089 284.052338
v  -15.495674 95.824089 278.712585
v  -15.133136 95.824089 273.372833
v  -13.337786 95.824081 296.316406
v  -10.079258 95.824081 296.302307
v  -7.534563 95.824081 296.309479
v  -2.752069 95.824081 296.309479
v  -0.090747 95.824081 296.302307
v  2.667033 95.824081 296.316406
v  3.204473 95.824097 239.992310
v  -0.161620 95.824097 240.075516
v  -2.840274 95.824097 239.998581
v  -8.031489 95.824097 239.998581
v  -10.470558 95.824097 240.075516
v  -12.437738 95.824097 240.019440
# 129 vertices

vn 0.000000 -0.000369 1.000000
vn 0.000000 0.072866 0.997342
vn 0.000000 0.073125 0.997323
vn 0.999988 0.004921 -0.000000
vn 0.000000 0.015620 -0.999878
vn 0.000000 0.078320 -0.996928
vn 0.000000 0.078099 -0.996946
vn -0.999903 -0.013920 0.000000
vn -0.998393 0.056671 0.000000
vn -0.998405 0.056462 0.000000
vn -0.999903 -0.013921 -0.000000
vn 0.000000 0.046169 0.998934
vn 0.000000 0.046613 0.998913
vn 0.999302 0.037356 -0.000000
vn 0.999290 0.037670 -0.000000
vn 0.991921 0.126857 -0.000000
vn 0.000000 0.040838 -0.999166
vn 0.000000 0.040396 -0.999184
vn -0.999009 0.044503 0.000000
vn -0.999023 0.044187 -0.000000
vn -0.000077 0.015619 -0.999878
vn -0.005488 0.999985 0.000000
vn 0.000002 -0.000369 1.000000
vn -0.005168 0.999986 0.001409
vn -0.003103 0.999995 0.000000
vn -0.005168 0.999986 -0.001409
vn 0.999970 0.007772 -0.000000
vn -0.000575 0.116870 -0.993147
vn -0.959714 0.086415 -0.267361
vn 0.000277 -0.073278 0.997312
vn 0.000277 -0.073278 -0.997312
vn -0.959714 0.086415 0.267361
vn -0.000575 0.116870 0.993147
vn 1.000000 -0.000810 -0.000000
vn 0.000528 -0.107276 -0.994229
vn -0.999967 -0.008073 -0.000000
vn -0.000485 0.098604 0.995127
vn -0.000485 0.098605 -0.995126
vn -0.999968 -0.008073 -0.000000
vn 0.000528 -0.107277 0.994229
vn 0.000000 -0.065013 0.997884
vn 0.998399 -0.056571 -0.000000
vn 0.000000 -0.070073 -0.997542
vn -0.998719 -0.050593 -0.000000
vn 0.000000 -1.000000 -0.000000
vn 0.606770 0.794878 0.000000
vn 0.656611 0.754229 0.000000
vn 0.665899 0.746042 0.000000
vn 0.610406 0.792089 0.000000
vn -0.727206 0.686420 0.000000
vn -0.724558 0.689213 -0.000000
vn -0.656562 0.754272 0.000000
vn -0.665832 0.746101 0.000000
vn -0.000399 0.126227 -0.992001
vn -0.013337 0.128732 -0.991590
vn -0.065542 0.191968 -0.979210
vn 0.000106 0.150715 0.988577
vn 0.030528 0.167251 0.985442
vn 0.070449 0.210015 0.975157
vn -0.001540 0.120893 -0.992664
vn -0.000424 0.113519 -0.993536
vn 0.000091 0.143067 0.989713
vn -0.000177 0.142370 0.989814
vn 0.606497 0.794976 0.013242
vn 0.602630 0.781385 -0.162094
vn 0.661906 0.747325 -0.058192
vn 0.654019 0.756470 0.003482
vn 0.663215 0.748423 -0.002941
vn 0.606770 0.794878 -0.000000
vn 0.665899 0.746042 -0.000000
vn 0.610406 0.792089 -0.000000
vn 0.727363 0.686147 0.012025
vn 0.659645 0.749129 0.060613
vn 0.656430 0.754384 0.002119
vn 0.724816 0.688943 0.000000
vn 0.727601 0.686001 0.000048
vn 0.666211 0.745759 0.002527
vn 0.724816 0.688943 -0.000000
vn 0.727464 0.686146 0.000000
vn -0.727446 0.686059 -0.012057
vn -0.661849 0.747377 -0.058165
vn -0.656500 0.754325 0.000965
vn -0.724559 0.689213 -0.000000
vn -0.724559 0.689213 0.000000
vn -0.665832 0.746101 -0.000000
vn -0.605092 0.795996 0.015928
vn -0.598378 0.781726 0.175638
vn -0.659591 0.749179 0.060584
vn -0.656381 0.754426 0.002118
vn -0.666144 0.745818 0.002527
vn -0.610539 0.791968 0.005405
vn -0.606916 0.794766 0.000000
vn -0.610548 0.791979 0.000000
vn -0.087462 0.230230 0.969198
vn -0.038995 0.175719 0.983668
vn 0.000615 0.142188 0.989839
vn -0.000366 0.143025 0.989719
vn -0.000951 0.142001 0.989866
vn 0.117153 0.240454 -0.963565
vn 0.042606 0.157150 -0.986655
vn 0.002826 0.116272 -0.993213
vn 0.000305 0.121331 -0.992612
vn -0.003233 0.117074 -0.993118
vn 0.724815 0.688943 -0.000000
vn -0.069195 0.198620 -0.977631
vn -0.118880 0.251499 -0.960529
vn 0.042762 0.188131 0.981212
vn 0.068691 0.214632 0.974277
vn 0.002537 0.123345 -0.992361
vn 0.000429 0.114606 -0.993411
vn -0.000317 0.143313 0.989677
vn -0.000094 0.142477 0.989798
vn 0.727705 0.685784 -0.012065
vn 0.729554 0.683901 0.005423
vn 0.732204 0.681064 -0.005430
vn 0.598217 0.781798 0.175862
vn 0.604946 0.796106 0.015955
vn 0.610397 0.792077 0.005412
vn -0.602784 0.781309 -0.161886
vn -0.606640 0.794866 0.013235
vn -0.606916 0.794766 -0.000000
vn -0.610548 0.791979 -0.000000
vn -0.727105 0.686421 0.012016
vn -0.727342 0.686275 0.000048
vn -0.059042 0.207527 0.976446
vn -0.089557 0.240059 0.966618
vn 0.001759 0.141228 0.989976
vn 0.000024 0.143175 0.989697
vn -0.002059 0.141145 0.989987
vn 0.077298 0.207186 -0.975243
vn 0.124373 0.258254 -0.958038
vn -0.007125 0.109228 -0.993991
vn -0.004589 0.123848 -0.992291
vn 0.008523 0.108627 -0.994046
# 134 vertex normals

vt 0.147088 0.456528 0.000000
vt 0.147450 0.531793 0.000000
vt 0.369159 0.531768 0.000000
vt 0.368107 0.456511 0.000000
vt 0.065884 0.999454 0.000000
vt 0.001346 0.999069 0.000000
vt 0.001346 0.977123 0.000000
vt 0.001346 0.563642 0.000000
vt 0.001346 0.542056 0.000000
vt 0.065884 0.541457 0.000000
vt 0.496582 0.277855 0.000000
vt 0.496598 0.319822 0.000000
vt 0.199157 0.319822 0.000000
vt 0.198500 0.277855 0.000000
vt 0.155727 0.597140 0.000000
vt 0.360402 0.597104 0.000000
vt 0.185387 0.299714 0.000000
vt 0.004296 0.299714 0.000000
vt 0.000790 0.276763 0.000000
vt 0.008465 0.276763 0.000000
vt 0.181071 0.276763 0.000000
vt 0.188746 0.276763 0.000000
vt 0.491050 0.356180 0.000000
vt 0.204472 0.356180 0.000000
vt 0.023008 0.532364 0.000000
vt 0.001049 0.532465 0.000000
vt 0.000703 0.457203 0.000000
vt 0.496596 0.739949 0.000000
vt 0.431788 0.738055 0.000000
vt 0.430886 0.457736 0.000000
vt 0.495680 0.455426 0.000000
vt 0.496637 0.752600 0.000000
vt 0.424364 0.752833 0.000000
vt 0.411562 0.738121 0.000000
vt 0.410660 0.457801 0.000000
vt 0.495640 0.442775 0.000000
vt 0.423367 0.443007 0.000000
vt 0.498960 0.031293 0.000000
vt 0.485494 0.136846 0.000000
vt 0.464348 0.135633 0.000000
vt 0.475312 0.029874 0.000000
vt 0.412625 0.029399 0.000000
vt 0.422218 0.135328 0.000000
vt 0.401140 0.136282 0.000000
vt 0.388771 0.030613 0.000000
vt 0.444069 0.028040 0.000000
vt 0.443243 0.134645 0.000000
vt 0.486577 0.252775 0.000000
vt 0.464534 0.251730 0.000000
vt 0.420453 0.251430 0.000000
vt 0.398399 0.252168 0.000000
vt 0.442499 0.250512 0.000000
vt 0.147125 0.749864 0.000000
vt 0.368153 0.749820 0.000000
vt 0.189157 0.353488 0.000000
vt 0.000797 0.353487 0.000000
vt 0.496586 0.441250 0.000000
vt 0.198505 0.441250 0.000000
vt 0.189156 0.402983 0.000000
vt 0.000796 0.402981 0.000000
vt 0.358651 0.139288 0.000000
vt 0.271663 0.139288 0.000000
vt 0.270444 0.115066 0.000000
vt 0.389365 0.115065 0.000000
vt 0.203621 0.115094 0.000000
vt 0.203621 0.139290 0.000000
vt 0.135557 0.139288 0.000000
vt 0.136776 0.115066 0.000000
vt 0.289513 0.993906 36.409912
vt 0.336130 0.922981 5.663113
vt 0.351442 0.922826 9.648518
vt 0.289513 0.993906 -45.954834
vt 0.336130 0.922981 -8.469482
vt 0.351442 0.922826 -12.177979
vt 0.273172 0.924221 5.175503
vt 0.289401 0.923923 6.974289
vt 0.273172 0.924221 -8.632935
vt 0.289401 0.923923 -8.802734
vt 0.358636 0.236218 0.000000
vt 0.407126 0.274804 0.000000
vt 0.270216 0.265541 0.000000
vt 0.271656 0.236203 0.000000
vt 0.270443 0.211965 0.000000
vt 0.389361 0.211970 0.000000
vt 0.358651 0.187737 0.000000
vt 0.271663 0.187735 0.000000
vt 0.270444 0.163510 0.000000
vt 0.389365 0.163511 0.000000
vt 0.203621 0.018468 0.000000
vt 0.270210 0.011776 0.000000
vt 0.271650 0.039650 0.000000
vt 0.203621 0.042579 0.000000
vt 0.203621 0.066728 0.000000
vt 0.270442 0.066620 0.000000
vt 0.271663 0.090841 0.000000
vt 0.203621 0.090904 0.000000
vt 0.203621 0.260114 0.000000
vt 0.137003 0.265540 0.000000
vt 0.135563 0.236202 0.000000
vt 0.203621 0.236001 0.000000
vt 0.203621 0.211851 0.000000
vt 0.136776 0.211964 0.000000
vt 0.135556 0.187735 0.000000
vt 0.203621 0.187675 0.000000
vt 0.203621 0.163485 0.000000
vt 0.136776 0.163510 0.000000
vt 0.048613 0.036873 0.000000
vt 0.000141 0.000260 0.000000
vt 0.137008 0.011777 0.000000
vt 0.135568 0.039651 0.000000
vt 0.136777 0.066621 0.000000
vt 0.017886 0.066587 0.000000
vt 0.048598 0.090837 0.000000
vt 0.135557 0.090842 0.000000
vt 0.017883 0.115065 0.000000
vt 0.224737 0.925414 -12.177979
vt 0.235500 0.924994 -8.469482
vt 0.256564 0.924597 -8.802734
vt 0.304886 0.923566 -8.632935
vt 0.321106 0.923281 -8.802734
vt 0.224737 0.925414 9.648518
vt 0.235500 0.924994 5.028919
vt 0.256564 0.924597 6.974289
vt 0.304886 0.923566 5.175503
vt 0.321106 0.923281 6.974289
vt 0.048597 0.139288 0.000000
vt 0.415349 0.849731 -26.539471
vt 0.500565 0.799740 -36.409912
vt 0.415349 0.849731 30.489868
vt 0.500565 0.799740 45.954712
vt 0.248841 0.852463 -26.539471
vt 0.290033 0.820758 -36.409859
vt 0.248841 0.852463 30.489868
vt 0.290033 0.820758 45.954712
vt 0.407105 0.000258 0.000000
vt 0.358634 0.036872 0.000000
vt 0.389361 0.066587 0.000000
vt 0.358650 0.090837 0.000000
vt 0.000120 0.274802 0.000000
vt 0.048611 0.236218 0.000000
vt 0.017886 0.211970 0.000000
vt 0.048598 0.187737 0.000000
vt 0.017883 0.163511 0.000000
vt 0.154066 0.855036 30.489868
vt 0.070793 0.808423 45.954712
vt 0.188779 0.822832 45.954712
vt 0.329132 0.850813 30.489868
vt 0.387791 0.818777 45.954834
vt 0.154066 0.855036 -26.539471
vt 0.070793 0.808423 -36.409912
vt 0.188779 0.822832 -36.409859
vt 0.329132 0.850813 -26.539471
vt 0.387791 0.818777 -36.409859
# 153 texture coords

g Box001
usemtl Material__26
s 8
f -128/-153/-134 -121/-152/-133 -120/-151/-132 -129/-150/-134 
s 16
f -116/-149/-131 -115/-148/-131 -111/-147/-131 -110/-146/-131 
f -116/-149/-131 -110/-146/-131 -114/-145/-131 -117/-144/-131 
s 32
f -127/-150/-130 -118/-151/-129 -119/-152/-128 -126/-153/-130 
s 64
f -129/-143/-127 -120/-142/-126 -118/-141/-125 -127/-140/-124 
s 8
f -88/-139/-123 -89/-138/-122 -120/-151/-132 -121/-152/-133 
s 16
f -87/-137/-121 -88/-136/-120 -121/-135/-119 -112/-134/-119 
f -87/-137/-121 -112/-134/-119 -113/-133/-119 -119/-132/-119 
s 32
f -86/-138/-118 -87/-139/-117 -119/-152/-128 -118/-151/-129 
s 64
f -89/-131/-116 -86/-130/-115 -118/-141/-125 -120/-142/-126 
s off
f -126/-153/-114 -119/-152/-114 -109/-129/-114 -115/-128/-114 
f -126/-153/-114 -115/-128/-114 -116/-127/-114 
f -112/-126/-113 -107/-125/-113 -106/-124/-113 -113/-123/-113 
f -121/-152/-112 -128/-153/-112 -117/-127/-112 -108/-129/-112 
f -117/-127/-112 -114/-128/-112 -108/-129/-112 
f -121/-122/-111 -108/-121/-111 -107/-125/-111 -112/-126/-111 
f -110/-120/-110 -111/-119/-110 -106/-124/-110 -107/-125/-110 
f -119/-118/-109 -113/-123/-109 -106/-124/-109 -109/-117/-109 
f -115/-116/-108 -96/-115/-108 -97/-114/-108 -111/-113/-108 
f -109/-112/-107 -95/-111/-107 -96/-110/-107 -115/-109/-107 
f -106/-108/-106 -94/-107/-106 -95/-111/-106 -109/-112/-106 
f -111/-113/-105 -97/-114/-105 -94/-107/-105 -106/-108/-105 
f -110/-112/-108 -92/-111/-108 -93/-110/-108 -114/-109/-108 
f -107/-108/-104 -91/-107/-104 -92/-111/-104 -110/-112/-104 
f -108/-113/-103 -90/-114/-103 -91/-107/-103 -107/-108/-103 
f -114/-116/-102 -93/-115/-102 -90/-114/-102 -108/-113/-102 
f -104/-106/-101 -105/-105/-101 -97/-114/-101 -96/-115/-101 
f -103/-104/-100 -104/-103/-100 -96/-110/-100 -95/-111/-100 
f -102/-102/-99 -103/-104/-99 -95/-111/-99 -94/-107/-99 
f -105/-105/-98 -102/-102/-98 -94/-107/-98 -97/-114/-98 
f -100/-104/-101 -101/-103/-101 -93/-110/-101 -92/-111/-101 
f -99/-102/-97 -100/-104/-97 -92/-111/-97 -91/-107/-97 
f -98/-105/-96 -99/-102/-96 -91/-107/-96 -90/-114/-96 
f -101/-106/-95 -98/-105/-95 -90/-114/-95 -93/-115/-95 
s 8
f -124/-101/-94 -125/-100/-94 -89/-138/-122 -88/-139/-123 
s 16
f -122/-99/-93 -124/-98/-93 -88/-136/-120 -87/-137/-121 
s 32
f -123/-100/-92 -122/-101/-92 -87/-139/-117 -86/-138/-118 
s 64
f -125/-97/-91 -123/-96/-91 -86/-130/-115 -89/-131/-116 
s off
f -124/-98/-90 -122/-99/-90 -84/-95/-90 -85/-94/-90 
s 1
f -62/-93/-89 -26/-92/-88 -22/-91/-87 -63/-90/-86 
s 4
f -70/-89/-85 -71/-88/-84 -17/-87/-83 -13/-86/-82 
s 16
f -82/-85/-81 -1/-84/-80 -34/-83/-79 
f -79/-82/-78 -7/-81/-77 -35/-80/-76 
f -82/-85/-81 -4/-79/-75 -32/-78/-74 
f -79/-82/-78 -10/-77/-73 -31/-76/-72 
s 1
f -58/-75/-71 -83/-74/-70 -36/-73/-69 -30/-72/-68 
f -58/-75/-71 -30/-72/-68 -29/-71/-67 -59/-70/-86 
f -60/-69/-66 -59/-70/-86 -29/-71/-67 -28/-68/-88 
f -60/-69/-66 -28/-68/-88 -27/-67/-65 -61/-66/-64 
f -62/-93/-89 -61/-66/-64 -27/-67/-65 -26/-92/-88 
f -79/-65/-63 -35/-64/-62 -25/-63/-61 -67/-62/-60 
f -68/-61/-59 -67/-62/-60 -25/-63/-61 -24/-60/-58 
f -68/-61/-59 -24/-60/-58 -23/-59/-88 -69/-58/-57 
f -70/-89/-56 -69/-58/-57 -23/-59/-88 -22/-91/-87 
s 4
f -82/-57/-55 -34/-56/-54 -21/-55/-53 -75/-54/-52 
f -74/-53/-85 -75/-54/-52 -21/-55/-53 -20/-52/-82 
f -74/-53/-85 -20/-52/-82 -19/-51/-83 -73/-50/-51 
f -72/-49/-85 -73/-50/-51 -19/-51/-83 -18/-48/-50 
f -72/-49/-85 -18/-48/-50 -17/-87/-83 -71/-88/-84 
f -49/-47/-49 -78/-46/-48 -33/-45/-47 -16/-44/-46 
f -49/-47/-49 -16/-44/-46 -15/-43/-45 -50/-42/-44 
f -51/-41/-43 -50/-42/-44 -15/-43/-45 -14/-40/-83 
f -51/-41/-43 -14/-40/-83 -13/-86/-82 -52/-39/-42 
s 16
f -79/-82/-78 -33/-38/-41 -12/-37/-40 
f -79/-82/-78 -12/-37/-40 -11/-36/-39 
f -79/-82/-78 -11/-36/-39 -10/-77/-73 
f -79/-82/-78 -31/-76/-72 -9/-35/-38 
f -79/-82/-78 -9/-35/-38 -8/-34/-37 
f -79/-82/-78 -8/-34/-37 -7/-81/-77 
f -82/-85/-81 -36/-33/-36 -6/-32/-35 
f -82/-85/-81 -6/-32/-35 -5/-31/-34 
f -82/-85/-81 -5/-31/-34 -4/-79/-75 
f -82/-85/-81 -32/-78/-74 -3/-30/-33 
f -82/-85/-81 -3/-30/-33 -2/-29/-32 
f -82/-85/-81 -2/-29/-32 -1/-84/-80 
s 1
f -26/-92/-88 -71/-88/-31 -70/-89/-56 -22/-91/-87 
s 4
f -53/-28/-43 -52/-39/-42 -13/-86/-82 -17/-87/-83 
s 16
f -37/-27/-30 -81/-26/-29 -34/-83/-79 -1/-84/-80 
f -43/-25/-28 -80/-24/-27 -35/-80/-76 -7/-81/-77 
f -40/-23/-26 -77/-22/-25 -32/-78/-74 -4/-79/-75 
f -46/-21/-24 -76/-20/-23 -31/-76/-72 -10/-77/-73 
s 1
f -82/-57/-22 -75/-54/-21 -30/-72/-68 -36/-73/-69 
f -75/-54/-21 -74/-53/-20 -29/-71/-67 -30/-72/-68 
f -74/-53/-20 -73/-50/-60 -28/-68/-88 -29/-71/-67 
f -28/-68/-88 -73/-50/-60 -72/-49/-56 -27/-67/-65 
f -72/-49/-56 -71/-88/-31 -26/-92/-88 -27/-67/-65 
f -35/-64/-62 -80/-19/-19 -66/-18/-18 -25/-63/-61 
f -66/-18/-18 -65/-17/-17 -24/-60/-58 -25/-63/-61 
f -24/-60/-58 -65/-17/-17 -64/-16/-89 -23/-59/-88 
f -64/-16/-89 -63/-90/-86 -22/-91/-87 -23/-59/-88 
s 4
f -34/-56/-54 -81/-15/-16 -57/-14/-15 -21/-55/-53 
f -57/-14/-15 -56/-13/-42 -20/-52/-82 -21/-55/-53 
f -20/-52/-82 -56/-13/-42 -55/-12/-14 -19/-51/-83 
f -55/-12/-14 -54/-11/-13 -18/-48/-50 -19/-51/-83 
f -18/-48/-50 -54/-11/-13 -53/-28/-43 -17/-87/-83 
f -79/-65/-12 -67/-62/-51 -16/-44/-46 -33/-45/-47 
f -16/-44/-46 -67/-62/-51 -68/-61/-11 -15/-43/-45 
f -68/-61/-11 -69/-58/-52 -14/-40/-83 -15/-43/-45 
f -14/-40/-83 -69/-58/-52 -70/-89/-85 -13/-86/-82 
s 16
f -48/-10/-10 -12/-37/-40 -33/-38/-41 -78/-9/-9 
f -47/-8/-8 -11/-36/-39 -12/-37/-40 -48/-10/-10 
f -46/-21/-24 -10/-77/-73 -11/-36/-39 -47/-8/-8 
f -45/-7/-7 -9/-35/-38 -31/-76/-72 -76/-20/-23 
f -44/-6/-6 -8/-34/-37 -9/-35/-38 -45/-7/-7 
f -43/-25/-28 -7/-81/-77 -8/-34/-37 -44/-6/-6 
f -42/-5/-5 -6/-32/-35 -36/-33/-36 -83/-4/-4 
f -41/-3/-3 -5/-31/-34 -6/-32/-35 -42/-5/-5 
f -40/-23/-26 -4/-79/-75 -5/-31/-34 -41/-3/-3 
f -39/-2/-2 -3/-30/-33 -32/-78/-74 -77/-22/-25 
f -38/-1/-1 -2/-29/-32 -3/-30/-33 -39/-2/-2 
f -37/-27/-30 -1/-84/-80 -2/-29/-32 -38/-1/-1 
# 93 polygons - 18 triangles

